# xmcd
#
# Track frame offsets:
# 183
# 16083
# 34733
# 58633
# 76333
# 97720
# 117170
# 136508
# 156083
# 171895
#
# Disc length: 2523 seconds
#
# Revision: 0
# Processed by: cddbd v1.4PL0 Copyright (c) Steve Scherf et al.
# Submitted via: Audion 2.6.0 (http://www.panic.com/audion/)
#
DISCID=6709d90a
DTITLE=The Singers Unlimited - Just in Time
DYEAR=1900
DGENRE=
TTITLE0=Just in Time
TTITLE1=My Foolish Heart
TTITLE2=Stone Ground Seven
TTITLE3=Sleep Loved
TTITLE4=Someone to watch over Me
TTITLE5=Honeysuckle Rose
TTITLE6=Zip-A-Dee-Doo-Dah
TTITLE7=Prelude to a Kiss
TTITLE8=I had to be You
TTITLE9=Impossible
EXTD=
EXTT0=
EXTT1=
EXTT2=
EXTT3=
EXTT4=
EXTT5=
EXTT6=
EXTT7=
EXTT8=
EXTT9=
PLAYORDER=
